<?xml version="1.0" standalone="no"?>
<!DOCTYPE svg PUBLIC "-//W3C//DTD SVG 1.1//EN" "http://www.w3.org/Graphics/SVG/1.1/DTD/svg11.dtd" >
<svg xmlns="http://www.w3.org/2000/svg">
<metadata>
<json>
{
	"fontFamily": "icoEqnx",
	"majorVersion": 1,
	"minorVersion": 0,
	"description": "ISAcadémia Font icone\nFont generated by IcoMoon.",
	"copyright": "©EquinoxeMIS",
	"designerURL": "",
	"fontURL": "http://www.equinoxemis.ch",
	"version": "Version 1.0",
	"fontId": "icoEqnx",
	"psName": "icoEqnx",
	"subFamily": "Regular",
	"fullName": "icoEqnx"
}
</json>
</metadata>
<defs>
<font id="icoEqnx" horiz-adv-x="512">
<font-face units-per-em="512" ascent="480" descent="-32" />
<missing-glyph horiz-adv-x="512" />
<glyph unicode="&#x20;" d="" horiz-adv-x="256" />
<glyph unicode="&#x21;" d="M506.88 213.76l-230.4 230.4c-10.24 10.24-30.72 10.24-40.96 0l-230.4-230.4c-10.24-10.24-5.12-20.48 10.24-20.48h46.080v-174.080c0-10.24 0-20.48 25.6-20.48h112.64v174.080h117.76v-174.080h117.76c15.36 0 15.36 10.24 15.36 20.48v174.080h46.080c15.36 0 20.48 10.24 10.24 20.48v0z" />
<glyph unicode="&#x22;" d="M327.68 459.52c-25.6 15.36-56.32 20.48-87.040 20.48s-66.56-10.24-107.52-20.48c-5.12 0-10.24-5.12-10.24-20.48 0 0 0 0 0 0v-46.080c0 0 0-20.48 15.36-25.6 5.12 0 5.12 0 10.24 0 0 0 0 0 5.12 0 0 0 0 0 0 0 25.6 15.36 51.2 20.48 76.8 20.48 15.36 0 25.6-5.12 40.96-10.24 10.24-5.12 20.48-20.48 20.48-30.72s-5.12-15.36-10.24-25.6c-15.36-5.12-25.6-15.36-40.96-35.84-25.6-20.48-46.080-40.96-51.2-61.44-10.24-15.36-15.36-35.84-15.36-66.56v-35.84c0-5.12 0-5.12 5.12-5.12 25.6 10.24 56.32 10.24 81.92 5.12 5.12 0 5.12 0 5.12 5.12v0c0 20.48 5.12 51.2 15.36 66.56s25.6 30.72 51.2 51.2c25.6 20.48 40.96 40.96 51.2 51.2 5.12 10.24 10.24 25.6 15.36 40.96 0 51.2-30.72 97.28-71.68 122.88zM220.16 85.76c-10.24 0-25.6-5.12-35.84-15.36-15.36-15.36-20.48-25.6-20.48-46.080 0-15.36 5.12-30.72 15.36-40.96 15.36-10.24 30.72-15.36 46.080-15.36s30.72 5.12 40.96 15.36 15.36 25.6 15.36 40.96c0 15.36-5.12 30.72-15.36 40.96-10.24 15.36-25.6 20.48-46.080 20.48z" />
<glyph unicode="&#x23;" d="M481.28 259.84c-25.6 51.2-66.56 92.16-128 102.4-56.32 10.24-117.76 5.12-163.84-25.6-51.2-30.72-76.8-56.32-97.28-122.88h-76.8c-15.36 0-20.48-15.36-10.24-25.6l107.52-143.36c5.12-5.12 15.36-5.12 20.48 0l107.52 143.36c10.24 10.24 5.12 25.6-10.24 25.6h-87.040c20.48 51.2 76.8 92.16 148.48 92.16 87.040 0 153.6-66.56 158.72-163.84 0-61.44 61.44-61.44 61.44-5.12 0 51.2-15.36 92.16-30.72 122.88z" />
<glyph unicode="&#x24;" d="M419.84 423.68h-66.56l81.92-117.76h-51.2l-128-148.48-128 148.48h-51.2l81.92 117.76h-66.56l-92.16-92.16v-281.6c0-15.36 10.24-25.6 25.6-25.6h460.8c15.36 0 25.6 10.24 25.6 25.6v281.6l-92.16 92.16z" />
<glyph unicode="&#x25;" d="M296.96 326.4v112.64h-76.8v-112.64h-76.8l112.64-133.12 112.64 133.12zM419.84 403.2h-66.56l81.92-117.76h-51.2l-128-148.48-128 148.48h-51.2l81.92 117.76h-66.56l-92.16-87.040v-281.6c0-15.36 10.24-25.6 25.6-25.6h460.8c15.36 0 25.6 10.24 25.6 25.6v281.6l-92.16 87.040z" />
<glyph unicode="&#x26;" d="M277.634 470.986c75.719 0 135.212-61.296 135.212-135.212 0-5.409 0-5.409 0-9.014-28.845 16.226-55.887 27.043-88.338 27.043-18.028 0-37.859-5.409-55.887-14.423-23.436 37.859-64.901 61.296-108.169 64.901 23.436 43.267 70.31 66.704 117.183 66.704zM135.212 377.24c41.465 0 79.324-18.028 102.76-46.873-52.281-32.45-79.324-88.338-79.324-146.028 0-23.437 5.409-52.281 18.028-75.719-18.028 0-28.845-5.409-41.465-5.409-75.719 0-135.212 61.296-135.212 135.212s61.296 138.817 135.212 138.817zM259.606 74.366l52.281 52.281-52.281 52.281c-7.212 7.212-10.817 16.226-10.817 25.24s3.606 18.028 10.817 25.239l28.845 28.845c7.212 7.212 16.226 10.817 25.24 10.817s18.028-3.606 25.24-10.817l52.281-52.281 50.479 50.479c-23.437 39.662-66.704 64.901-115.38 64.901-75.719 0-135.212-61.296-135.212-135.212 0-48.676 27.042-91.943 66.704-117.183-1.803 1.803 0 3.606 1.803 5.409zM439.887 126.648l66.704 66.704c5.409 5.409 5.409 16.226 0 21.634l-28.845 28.845c-5.409 5.409-16.226 5.409-21.634 0l-66.704-66.704-66.704 66.704c-5.409 5.409-16.226 5.409-21.634 0l-28.845-28.845c-5.409-5.409-5.409-16.226 0-21.634l66.704-66.704-66.704-66.704c-5.409-5.409-5.409-16.226 0-21.634l28.845-28.845c5.409-5.409 16.226-5.409 21.634 0l66.704 66.704 66.704-66.704c5.409-5.409 16.226-5.409 21.634 0l28.845 28.845c5.409 5.409 5.409 16.226 0 21.634l-66.704 66.704z" />
<glyph unicode="&#x27;" d="M256 393.465c70.31 0 126.197-55.888 126.197-126.197 0-3.606 0-3.606 0-9.014-25.24 18.028-52.281 25.239-82.93 25.239-18.028 0-34.253-3.606-52.281-12.619-21.634 34.253-61.296 55.887-99.155 61.296 21.634 39.662 64.901 61.296 108.169 61.296zM126.197 306.929c39.662 0 73.916-18.028 95.549-43.267-48.676-30.648-73.915-82.93-73.915-135.212 0-21.634 3.606-48.676 18.028-70.31-18.028 0-25.239-3.606-39.662-3.606-70.31 0-126.197 55.887-126.197 126.197s55.888 126.197 126.197 126.197zM302.873 31.099c-14.423 0-25.24 10.817-25.24 25.24v32.45c0 14.423 10.817 25.24 25.24 25.24h122.591c0 5.409 1.803 10.817 1.803 16.226 0 70.31-55.887 126.197-126.197 126.197s-126.197-55.887-126.197-126.197c0-70.31 55.887-126.197 126.197-126.197 30.648 0 57.69 10.817 79.324 27.043h-77.521zM380.394 49.127h-77.521c-3.606 0-7.212 3.606-7.212 7.212v32.45c0 3.606 3.606 7.212 7.212 7.212h201.916c3.606 0 7.212-3.606 7.212-7.212v-32.45c0-3.606-3.606-7.212-7.212-7.212h-124.394zM504.788 94.197c3.606 0 7.212-3.606 7.212-7.212v-32.45c0-3.606-3.606-7.212-7.212-7.212h-201.916c-3.606 0-7.212 3.606-7.212 7.212v32.45c0 3.606 3.606 7.212 7.212 7.212h201.916z" />
<glyph unicode="&#x28;" d="M256 438.535c70.31 0 126.197-55.887 126.197-126.197 0-3.606 0-3.606 0-9.014-25.24 18.028-52.281 25.24-82.93 25.24-18.028 0-34.253-3.606-52.281-12.62-21.634 34.254-61.296 55.888-100.957 61.296 23.436 39.662 66.704 61.296 109.972 61.296zM126.197 352c39.662 0 73.916-18.028 95.549-43.267-48.676-30.648-73.915-82.93-73.915-135.212 0-21.634 3.606-48.676 18.028-70.31-18.028 0-25.239-3.606-39.662-3.606-70.31 0-126.197 55.887-126.197 126.197s55.888 126.197 126.197 126.197zM362.366 74.366h-57.69c-14.423 0-27.043 12.62-27.043 27.043v32.45c0 14.423 12.62 27.043 27.043 27.043h57.69v57.69c0 14.423 12.62 27.042 27.043 27.042h18.028c-23.437 34.254-61.296 57.69-104.563 57.69-70.31 0-126.197-55.887-126.197-126.197s55.887-126.197 126.197-126.197c21.634 0 43.267 5.409 61.296 16.226v7.212zM504.788 139.267h-77.521v77.521c0 3.606-3.606 7.212-7.212 7.212h-32.45c-3.606 0-7.212-3.606-7.212-7.212v-77.521h-77.521c-3.606 0-7.212-3.606-7.212-7.212v-30.648c0-3.606 3.606-7.212 7.212-7.212h77.521v-77.521c0-3.606 3.606-7.212 7.212-7.212h32.45c3.606 0 7.212 3.606 7.212 7.212v77.521h77.521c3.606 0 7.212 3.606 7.212 7.212v32.45c-1.803 3.606-3.606 5.409-7.212 5.409z" />
<glyph unicode="&#x29;" d="M236.169 420.507c64.902 0 115.381-52.281 115.381-115.381 0-3.606 0-3.606 0-7.212-23.437 16.226-48.676 23.437-75.719 23.437-16.226 0-32.451-3.606-48.676-12.62-19.831 32.451-55.887 52.282-91.944 55.888 21.634 36.056 61.296 55.887 100.958 55.887zM117.183 341.183c36.057 0 68.507-16.226 88.338-39.662-43.267-28.845-68.507-75.718-68.507-124.394 0-19.831 3.606-43.267 16.226-64.901-16.226 0-23.436-3.606-36.056-3.606-64.901 0-115.38 52.281-115.38 115.38s50.479 117.183 115.38 117.183zM319.099 132.057c0 0 0 0 0 0s0 0 0 0zM331.719 135.662c-1.803-1.803-3.606-1.803-5.409-3.606 3.606 0 5.409 1.803 5.409 3.606zM326.31 132.057c-1.803 0-1.803 0-3.606 0 1.803-1.803 1.803-1.803 3.606 0zM239.774 198.76c1.803 0 3.606 0 5.409 0-1.803-1.803-3.606 0-5.409 0 0 0 0 0 0 0zM198.31 139.267c-16.226 16.226-14.423 43.267 1.803 61.296l7.212 7.212c9.014 9.014 19.831 12.62 32.451 12.62 10.817 0 21.634-3.606 28.845-12.62l54.084-52.281 63.099 59.493c-16.226 45.071-59.493 75.719-108.169 75.719-64.901 0-115.38-52.281-115.38-115.38s48.676-113.577 109.972-115.38l-73.916 79.324zM234.366 196.957c-1.803 0-1.803 0-3.606 0 1.803 0 1.803 0 3.606 0zM254.197 193.352c-1.803 1.803-3.606 3.606-7.212 3.606 1.803-1.803 5.409-1.803 7.212-3.606zM504.788 251.042l-9.014 9.014c-7.212 7.212-23.437 9.014-32.45 0l-131.606-126.197c-5.409-5.409-12.62-5.409-18.028 0l-59.493 59.493c-7.212 7.212-21.634 7.212-30.648-1.803l-7.212-7.212c-9.014-9.014-9.014-21.634-1.803-30.648l93.746-100.957c7.212-7.212 21.634-7.212 30.648 1.803l165.859 165.859c7.212 9.014 9.014 21.634 0 30.648z" />
<glyph unicode="&#x2a;" d="M307.2 454.4c81.92 0 148.48-66.56 148.48-148.48 0-5.12 0-5.12 0-10.24-30.72 20.48-61.44 30.72-97.28 30.72-20.48 0-40.96-5.12-61.44-15.36-25.6 40.96-71.68 66.56-117.76 71.68 25.6 46.080 76.8 71.68 128 71.68zM153.6 352c46.080 0 87.040-20.48 112.64-51.2-56.32-35.84-87.040-97.28-87.040-158.72 0-25.6 5.12-56.32 20.48-81.92-20.48 0-30.72-5.12-46.080-5.12-81.92 0-148.48 66.56-148.48 148.48s66.56 148.48 148.48 148.48zM358.4 290.56c81.92 0 148.48-66.56 148.48-148.48s-66.56-148.48-148.48-148.48c-81.92 0-148.48 66.56-148.48 148.48s66.56 148.48 148.48 148.48z" />
<glyph unicode="&#x2b;" d="M194.56 433.92l-184.32-184.32c-15.36-15.36-15.36-35.84 0-51.2l184.32-184.32c15.36-15.36 35.84-15.36 51.2 0s15.36 35.84 0 51.2l-122.88 122.88h348.16c25.6 0 40.96 15.36 40.96 35.84s-15.36 35.84-35.84 35.84h-353.28l122.88 122.88c5.12 5.12 10.24 15.36 10.24 25.6s-5.12 15.36-10.24 25.6c-15.36 15.36-35.84 15.36-51.2 0z" />
<glyph unicode="&#x2c;" d="M465.92 285.44l-184.32 184.32c-15.36 15.36-35.84 15.36-51.2 0l-184.32-184.32c-15.36-15.36-15.36-35.84 0-51.2s35.84-15.36 51.2 0l122.88 122.88v-348.16c0-25.6 15.36-40.96 35.84-40.96s35.84 15.36 35.84 35.84v353.28l122.88-122.88c5.12-5.12 15.36-10.24 25.6-10.24s20.48 5.12 25.6 10.24c15.36 15.36 15.36 35.84 0 51.2z" />
<glyph unicode="&#x2d;" d="M512-1.28l-235.52 471.040c-5.12 15.36-30.72 15.36-35.84 0l-240.64-471.040c-5.12-15.36 5.12-30.72 20.48-30.72h471.040c15.36 0 25.6 15.36 20.48 30.72zM424.96 14.080h-337.92c-15.36 0-25.6 15.36-20.48 30.72l168.96 337.92c5.12 15.36 30.72 15.36 35.84 0l168.96-337.92c10.24-15.36 0-30.72-15.36-30.72zM250.88 121.6c0 0 5.12 0 10.24 0 10.24 0 15.36 10.24 15.36 20.48 5.12 30.72 5.12 87.040 5.12 128 0 10.24-5.12 20.48-20.48 20.48h-10.24c-10.24 0-20.48-5.12-20.48-20.48 0-20.48 0-46.080 5.12-128-5.12-10.24 5.12-20.48 15.36-20.48zM256 101.12c-5.12 0-15.36-5.12-20.48-10.24s-10.24-10.24-10.24-20.48c0-10.24 5.12-15.36 10.24-20.48s10.24-10.24 20.48-10.24c10.24 0 15.36 5.12 20.48 10.24s10.24 15.36 10.24 20.48c0 10.24-5.12 15.36-10.24 20.48s-10.24 10.24-20.48 10.24z" />
<glyph unicode="&#x2e;" d="M168.96 285.44h66.56v-61.44h-66.56v61.44zM271.36 285.44h66.56v-61.44h-66.56v61.44zM373.76 285.44h66.56v-61.44h-66.56v61.44zM66.56 96h66.56v-61.44h-66.56v61.44zM168.96 96h66.56v-61.44h-66.56v61.44zM271.36 96h66.56v-61.44h-66.56v61.44zM168.96 193.28h66.56v-61.44h-66.56v61.44zM271.36 193.28h66.56v-61.44h-66.56v61.44zM373.76 193.28h66.56v-61.44h-66.56v61.44zM66.56 193.28h66.56v-61.44h-66.56v61.44zM445.44 480v-30.72h-71.68v30.72h-235.52v-30.72h-71.68v30.72h-66.56v-512h512v512h-66.56zM476.16-1.28h-440.32v353.28h445.44v-353.28z" />
<glyph unicode="&#x2f;" d="M256 275.2c-40.96 0-76.8-35.84-76.8-76.8s35.84-76.8 76.8-76.8 76.8 35.84 76.8 76.8-35.84 76.8-76.8 76.8zM460.8 352h-61.44c-10.24 0-15.36 5.12-20.48 15.36l-15.36 46.080c-5.12 10.24-10.24 15.36-20.48 15.36h-174.080c-10.24 0-15.36-5.12-20.48-15.36l-15.36-46.080c-5.12-10.24-10.24-15.36-20.48-15.36h-61.44c-30.72 0-51.2-25.6-51.2-51.2v-230.4c0-30.72 20.48-51.2 51.2-51.2h409.6c30.72 0 51.2 20.48 51.2 51.2v230.4c0 25.6-25.6 51.2-51.2 51.2v0zM256 70.4c-71.68 0-128 56.32-128 128s56.32 128 128 128c71.68 0 128-56.32 128-128s-56.32-128-128-128zM440.32 264.96c-5.12 0-15.36 10.24-15.36 20.48s10.24 15.36 20.48 15.36c5.12 0 15.36-10.24 15.36-15.36s-10.24-20.48-20.48-20.48z" />
<glyph unicode="&#x30;" d="M435.2-32h-358.4c-40.96 0-76.8 35.84-76.8 76.8v358.4c0 40.96 35.84 76.8 76.8 76.8h363.52c35.84 0 71.68-35.84 71.68-76.8v-363.52c0-35.84-35.84-71.68-76.8-71.68zM435.2 403.2h-358.4v-358.4h358.4v358.4z" />
<glyph unicode="&#x31;" d="M25.6 280.32c51.2-15.36 230.4-76.8 230.4-76.8l133.12 46.080-133.12 46.080c0 0-15.36 5.12-15.36 15.36 0 15.36 10.24 15.36 20.48 10.24l133.12-51.2c0 0 40.96-10.24 46.080-76.8 0 0-10.24-5.12-10.24-20.48s10.24-20.48 10.24-20.48-10.24-25.6-5.12-61.44c0-35.84 25.6-56.32 35.84-56.32 15.36 0 40.96 20.48 40.96 20.48s-46.080 46.080-46.080 97.28c0 0 15.36 5.12 15.36 25.6 0 15.36-15.36 15.36-15.36 15.36s-5.12 56.32-25.6 71.68c0 0 0 5.12 15.36 5.12 15.36 5.12 40.96 15.36 40.96 15.36s25.6 10.24-30.72 30.72c-51.2 15.36-215.040 71.68-215.040 71.68l-230.4-81.92c0 0-46.080-10.24 5.12-25.6zM250.88 177.92c-25.6 5.12-158.72 51.2-158.72 51.2v-71.68c0 0 15.36-66.56 148.48-66.56s163.84 40.96 163.84 40.96-10.24 15.36-10.24 30.72c0 15.36 5.12 35.84 20.48 35.84 0 10.24-5.12 30.72-5.12 30.72s-138.24-46.080-158.72-51.2z" />
<glyph unicode="&#x32;" d="M455.68 136.96c-20.48 25.6-51.2 35.84-81.92 35.84h-15.36l-35.84 35.84 138.24 133.12c35.84 35.84 35.84 102.4 0 138.24l-204.8-204.8-204.8 204.8c-35.84-35.84-35.84-102.4 0-138.24l138.24-138.24-35.84-30.72h-15.36c-30.72 0-61.44-10.24-81.92-35.84-46.080-40.96-51.2-107.52-15.36-143.36 15.36-15.36 35.84-25.6 61.44-25.6 30.72 0 61.44 10.24 81.92 35.84 30.72 30.72 40.96 66.56 35.84 102.4l35.84 30.72 35.84-35.84c-5.12-30.72 5.12-66.56 35.84-97.28 25.6-25.6 56.32-35.84 81.92-35.84 20.48 0 46.080 10.24 61.44 25.6 35.84 35.84 30.72 97.28-15.36 143.36v0zM168.96 65.28c0-10.24-10.24-20.48-15.36-30.72-10.24-5.12-15.36-10.24-25.6-15.36s-20.48-5.12-25.6-5.12c-10.24 0-20.48 0-30.72 10.24-5.12 10.24-10.24 20.48-10.24 25.6 0 10.24 0 15.36 5.12 25.6s10.24 20.48 15.36 25.6 20.48 15.36 30.72 20.48c10.24 5.12 15.36 5.12 25.6 5.12s20.48 0 30.72-10.24c10.24-10.24 10.24-20.48 10.24-25.6 0-10.24-5.12-20.48-10.24-25.6zM256 157.44c-25.6 0-46.080 20.48-46.080 46.080s20.48 51.2 46.080 51.2 46.080-20.48 46.080-46.080-20.48-51.2-46.080-51.2zM440.32 24.32c-10.24-10.24-20.48-10.24-30.72-10.24s-15.36 0-25.6 5.12c-10.24 5.12-15.36 10.24-25.6 15.36-5.12 10.24-15.36 20.48-15.36 30.72-5.12 5.12-10.24 15.36-10.24 25.6s0 20.48 10.24 25.6c10.24 10.24 20.48 10.24 30.72 10.24s15.36 0 25.6-5.12c10.24-5.12 20.48-10.24 25.6-15.36 10.24-10.24 15.36-15.36 15.36-25.6 5.12-10.24 10.24-20.48 10.24-30.72 0-5.12-5.12-15.36-10.24-25.6z" />
<glyph unicode="&#x33;" d="M476.16 377.6h-440.32c-20.48 0-35.84-15.36-35.84-35.84v-235.52c0-20.48 15.36-35.84 35.84-35.84h440.32c20.48 0 35.84 15.36 35.84 35.84v235.52c0 20.48-15.36 35.84-35.84 35.84zM281.6 326.4h51.2v-51.2h-51.2v51.2zM358.4 249.6v-51.2h-51.2v51.2h51.2zM204.8 326.4h51.2v-51.2h-51.2v51.2zM281.6 249.6v-51.2h-51.2v51.2h51.2zM128 326.4h51.2v-51.2h-51.2v51.2zM204.8 249.6v-51.2h-51.2v51.2h51.2zM51.2 326.4h51.2v-51.2h-51.2v51.2zM128 249.6v-51.2h-51.2v51.2h51.2zM102.4 121.6h-51.2v51.2h51.2v-51.2zM384 121.6h-256v51.2h256v-51.2zM460.8 121.6h-51.2v51.2h51.2v-51.2zM384 198.4v51.2h51.2v-51.2h-51.2zM460.8 275.2h-102.4v51.2h102.4v-51.2z" />
<glyph unicode="&#x34;" d="M450.56 357.12c-15.36 76.8-81.92 128-153.6 112.64s-133.12-71.68-122.88-143.36c5.12-15.36 10.24-40.96 20.48-61.44l-133.12-199.68c-5.12-5.12-5.12-20.48-5.12-30.72l10.24-51.2c0-10.24 10.24-15.36 20.48-15.36l40.96 5.12c10.24 0 20.48 10.24 25.6 15.36l51.2 87.040 35.84 5.12 61.44 97.28c20.48-5.12 51.2 0 66.56 0 66.56 25.6 97.28 102.4 81.92 179.2v0zM389.12 321.28c-20.48-30.72-40.96-10.24-71.68 10.24s-51.2 35.84-30.72 66.56c20.48 30.72 61.44 35.84 87.040 15.36s35.84-61.44 15.36-92.16z" />
<glyph unicode="&#x35;" d="M512 300.8c0-40.96-20.48-81.92-46.080-107.52v0l-163.84-163.84c-15.36-15.36-30.72-30.72-46.080-30.72s-30.72 15.36-46.080 30.72l-163.84 163.84c-25.6 25.6-46.080 66.56-46.080 107.52 0 81.92 66.56 148.48 148.48 148.48 40.96 0 81.92-20.48 107.52-51.2 25.6 30.72 66.56 51.2 107.52 51.2 81.92 0 148.48-66.56 148.48-148.48z" />
<glyph unicode="&#x36;" d="M256 172.8c61.44 0 112.64 20.48 117.76 46.080-10.24 25.6-20.48 51.2-30.72 81.92-5.12-20.48-46.080-35.84-87.040-35.84s-81.92 15.36-87.040 35.84c-10.24-30.72-20.48-56.32-30.72-81.92 5.12-25.6 56.32-46.080 117.76-46.080v0zM256 341.76c30.72 0 56.32 10.24 61.44 20.48-10.24 30.72-20.48 61.44-25.6 76.8 0 10.24-20.48 15.36-35.84 15.36s-35.84-5.12-35.84-15.36c-5.12-15.36-15.36-46.080-25.6-71.68 5.12-15.36 30.72-25.6 61.44-25.6v0zM481.28 147.2l-97.28 35.84 10.24-30.72c0-30.72-61.44-56.32-138.24-56.32s-138.24 25.6-138.24 56.32l10.24 30.72-97.28-35.84c-25.6-10.24-25.6-30.72 0-46.080l179.2-97.28c25.6-15.36 66.56-15.36 92.16 0l179.2 97.28c25.6 15.36 25.6 35.84 0 46.080v0z" />
<glyph unicode="&#x37;" d="M486.4 377.6h-460.8c-20.48 0-35.84-25.6-20.48-40.96l230.4-230.4c10.24-10.24 25.6-10.24 35.84 0l230.4 230.4c20.48 15.36 5.12 40.96-15.36 40.96z" />
<glyph unicode="&#x38;" d="M460.8 428.8h-409.6c-30.72 0-51.2-25.6-51.2-51.2v-307.2c0-30.72 20.48-51.2 51.2-51.2h409.6c30.72 0 51.2 20.48 51.2 51.2v307.2c0 25.6-20.48 51.2-51.2 51.2zM460.8 70.4h-409.6v307.2h409.6v-307.2zM230.4 167.68h-128v-46.080h128v46.080zM230.4 244.48h-128v-46.080h128v46.080zM230.4 326.4h-128v-46.080h128c0 0 0 46.080 0 46.080zM404.48 162.56c0 0-40.96 10.24-40.96 35.84 0 20.48 30.72 30.72 30.72 71.68 0 35.84-10.24 56.32-46.080 56.32s-51.2-25.6-51.2-61.44c0-40.96 30.72-51.2 30.72-71.68s-40.96-35.84-40.96-35.84c-5.12 0-5.12-35.84-5.12-35.84h128c0 5.12 0 40.96-5.12 40.96z" />
<glyph unicode="&#x39;" d="M286.72 480h-194.56c-20.48 0-35.84-10.24-35.84-30.72v-481.28h399.36v343.040c0 97.28-71.68 168.96-168.96 168.96zM138.24 254.72h250.88v-40.96h-250.88v40.96zM389.12 39.68h-250.88v46.080h250.88v-46.080zM389.12 131.84h-250.88v40.96h250.88v-40.96z" />
<glyph unicode="&#x3a;" d="M506.88 341.76c-5.12 0-56.32 0-56.32 0-10.24 0-15.36-5.12-20.48-10.24l-153.6-215.040c-5.12-5.12-10.24-5.12-15.36 0l-10.24 10.24-35.84-46.080 10.24-15.36 35.84-46.080c10.24-10.24 20.48-10.24 35.84 0l215.040 307.2c0 5.12 0 15.36-5.12 15.36zM378.88 382.72c-5.12 0-56.32 0-56.32 0-10.24 0-20.48-5.12-20.48-10.24l-153.6-215.040c-5.12-5.12-10.24-5.12-15.36 0l-51.2 66.56c-5.12 5.12-15.36 15.36-25.6 15.36 0 0-40.96 5.12-51.2 0-5.12 0-5.12-10.24 0-15.36l133.12-168.96c0-5.12 15.36-5.12 25.6 5.12l215.040 307.2c5.12 5.12 5.12 15.36 0 15.36z" />
<glyph unicode="&#x3b;" d="M184.32 264.96l-61.44 56.32c-10.24 10.24-25.6 10.24-35.84 0l-81.92-81.92c-5.12-5.12-5.12-25.6 0-30.72l81.92-81.92c10.24-10.24 25.6-10.24 35.84 0l56.32 56.32c25.6 20.48 25.6 61.44 5.12 81.92zM215.040 295.68c20.48-20.48 61.44-20.48 81.92 0l56.32 56.32c10.24 10.24 10.24 25.6 0 35.84l-81.92 87.040c-5.12 5.12-25.6 5.12-30.72 0l-81.92-81.92c-10.24-10.24-10.24-25.6 0-35.84l56.32-61.44zM296.96 152.32c-20.48 20.48-61.44 20.48-81.92 0l-56.32-61.44c-10.24-10.24-10.24-25.6 0-35.84l81.92-81.92c10.24-10.24 25.6-10.24 35.84 0l81.92 81.92c10.24 10.24 10.24 25.6 0 35.84l-61.44 61.44zM506.88 239.36l-81.92 81.92c-10.24 10.24-25.6 10.24-35.84 0l-61.44-56.32c-20.48-20.48-20.48-61.44 0-81.92l56.32-56.32c10.24-10.24 25.6-10.24 35.84 0l81.92 81.92c10.24 5.12 10.24 25.6 5.12 30.72z" />
<glyph unicode="&#x3c;" d="M20.48 459.52h312.32v-343.040h-312.32v343.040zM378.88 346.88v-276.48h-245.76v-66.56h312.32v343.040z" />
<glyph unicode="&#x3d;" d="M204.8 96l-76.8 76.8c-10.24 10.24-10.24 30.72 0 40.96l266.24 266.24 117.76-117.76-266.24-266.24c-10.24-10.24-30.72-10.24-40.96 0zM163.84 49.92l-76.8 76.8c-15.36 10.24-30.72 10.24-35.84-5.12l-51.2-143.36c0-5.12 5.12-10.24 15.36-10.24l143.36 46.080c10.24 5.12 15.36 25.6 5.12 35.84z" />
<glyph unicode="&#x3e;" d="M389.12 428.8h-286.72c-25.6 0-51.2-25.6-51.2-51.2v-307.2c0-30.72 25.6-51.2 51.2-51.2h307.2c30.72 0 51.2 20.48 51.2 51.2v276.48c0 0-71.68 81.92-71.68 81.92zM358.4 275.2c0-15.36-10.24-25.6-25.6-25.6h-153.6c-15.36 0-25.6 10.24-25.6 25.6v128h204.8v-128zM332.8 377.6h-51.2v-102.4h51.2v102.4z" />
<glyph unicode="&#x3f;" d="M506.88 218.88l-138.24 138.24c-10.24 10.24-25.6 5.12-25.6-10.24v-87.040h-179.2v87.040c0 10.24-15.36 20.48-25.6 10.24l-133.12-138.24c-5.12-5.12-5.12-15.36 0-20.48l138.24-138.24c10.24-10.24 20.48-5.12 20.48 10.24v87.040h179.2v-87.040c0-10.24 15.36-20.48 25.6-10.24l138.24 138.24c5.12 5.12 5.12 15.36 0 20.48z" />
<glyph unicode="&#x40;" d="M455.68 259.84h-66.56c-15.36 0-25.6-15.36-25.6-30.72v0c0-15.36 10.24-30.72 25.6-30.72h20.48c25.6 0 25.6-25.6 25.6-25.6v0-112.64c0-20.48-15.36-35.84-30.72-35.84h-291.84c-20.48 0-30.72 15.36-30.72 35.84v117.76c0 10.24 5.12 25.6 25.6 25.6h20.48c10.24 0 25.6 10.24 25.6 25.6v0c0 15.36-15.36 30.72-30.72 30.72h-66.56c-20.48 0-35.84-15.36-35.84-35.84v-215.040c0-20.48 20.48-40.96 40.96-40.96h394.24c20.48 0 35.84 20.48 35.84 40.96v215.040c0 20.48-15.36 35.84-35.84 35.84zM128 321.28h76.8c10.24 0 15.36-5.12 15.36-15.36v-204.8c0-10.24 10.24-20.48 20.48-20.48h35.84c10.24 0 20.48 10.24 20.48 20.48v204.8c0 10.24 5.12 15.36 15.36 15.36h71.68c20.48 0 30.72 25.6 15.36 40.96l-138.24 112.64c0 5.12-5.12 5.12-10.24 0l-138.24-107.52c-15.36-15.36-5.12-46.080 15.36-46.080z" />
<glyph unicode="&#x41;" d="M363.52 224l138.24 138.24c15.36 15.36 15.36 35.84 0 46.080l-61.44 61.44c-10.24 15.36-30.72 15.36-46.080 0l-138.24-138.24-138.24 138.24c-15.36 15.36-35.84 15.36-46.080 0l-61.44-61.44c-15.36-15.36-15.36-35.84 0-46.080l138.24-138.24-138.24-138.24c-15.36-15.36-15.36-35.84 0-46.080l61.44-61.44c15.36-15.36 35.84-15.36 46.080 0l138.24 138.24 138.24-138.24c15.36-15.36 35.84-15.36 46.080 0l61.44 61.44c15.36 15.36 15.36 35.84 0 46.080l-138.24 138.24z" />
<glyph unicode="&#x42;" d="M179.2 259.84c5.12 0 10.24 0 10.24 5.12s5.12 10.24 5.12 15.36c0 5.12 0 10.24-5.12 15.36s-5.12 5.12-10.24 5.12-5.12 0-10.24-5.12-5.12-5.12-10.24-10.24c0-10.24 5.12-15.36 5.12-20.48 5.12-5.12 10.24-5.12 15.36-5.12zM399.36 480h-358.4c-20.48 0-40.96-20.48-40.96-46.080v-414.72c0-30.72 20.48-51.2 46.080-51.2h358.4c25.6 0 46.080 20.48 46.080 46.080v419.84c-5.12 25.6-25.6 46.080-51.2 46.080zM122.88 341.76c5.12 10.24 15.36 20.48 25.6 30.72 10.24 5.12 25.6 10.24 46.080 10.24 10.24 0 25.6 0 40.96-5.12v-35.84c-15.36 10.24-25.6 10.24-35.84 10.24s-15.36-5.12-25.6-10.24c-10.24-5.12-10.24-10.24-15.36-25.6 5.12 5.12 15.36 10.24 20.48 10.24 5.12 5.12 10.24 5.12 15.36 5.12 15.36 0 25.6-5.12 35.84-15.36s15.36-20.48 15.36-35.84c0-15.36-5.12-30.72-20.48-40.96-10.24-10.24-25.6-15.36-40.96-15.36-20.48 0-35.84 5.12-51.2 20.48-15.36 10.24-20.48 30.72-20.48 56.32 0 15.36 5.12 30.72 10.24 40.96zM353.28 96h-266.24v30.72h266.24v-30.72zM353.28 162.56h-266.24v30.72h266.24v-30.72z" />
<glyph unicode="&#x43;" d="M46.080 162.56l184.32-184.32c15.36-15.36 35.84-15.36 51.2 0l184.32 184.32c15.36 15.36 15.36 35.84 0 51.2s-35.84 15.36-51.2 0l-122.88-122.88v353.28c0 20.48-15.36 35.84-35.84 35.84s-35.84-15.36-35.84-35.84v-348.16l-122.88 117.76c-5.12 5.12-15.36 10.24-25.6 10.24s-15.36-5.12-25.6-10.24c-15.36-15.36-15.36-35.84 0-51.2z" />
<glyph unicode="&#x44;" d="M317.44 14.080l184.32 184.32c15.36 15.36 15.36 35.84 0 51.2l-184.32 184.32c-15.36 15.36-35.84 15.36-51.2 0s-15.36-35.84 0-51.2l122.88-122.88h-353.28c-20.48 0-35.84-15.36-35.84-35.84s15.36-35.84 35.84-35.84h348.16l-117.76-122.88c-5.12-5.12-10.24-15.36-10.24-25.6s5.12-20.48 10.24-25.6c15.36-15.36 35.84-15.36 51.2 0z" />
<glyph unicode="&#x45;" d="M0 408.32h512v-107.52h-512v107.52zM0 259.84h512v-107.52h-512v107.52zM0 111.36h512v-107.52h-512v107.52z" />
<glyph unicode="&#x46;" d="M0 449.28v-450.56h512v450.56h-512zM414.72 193.28v-97.28h-317.44v66.56l97.28 158.72 128-158.72 92.16 61.44v-30.72zM368.64 259.84c-25.6 0-46.080 20.48-46.080 46.080s20.48 46.080 46.080 46.080 46.080-20.48 46.080-46.080c0-25.6-20.48-46.080-46.080-46.080z" />
<glyph unicode="&#x47;" d="M373.76 167.68h-235.52c-15.36 0-25.6-10.24-25.6-25.6v-102.4c0-10.24 15.36-20.48 25.6-20.48h235.52c15.36 0 25.6 10.24 25.6 25.6v102.4c0 10.24-15.36 20.48-25.6 20.48zM481.28 300.8h-61.44v97.28c0 20.48-15.36 40.96-40.96 40.96h-245.76c-20.48 0-35.84-15.36-35.84-40.96v-97.28h-61.44c-20.48 0-35.84-15.36-35.84-35.84v-112.64c0-20.48 15.36-35.84 35.84-35.84h56.32v40.96c0 20.48 15.36 35.84 35.84 35.84h256c20.48 0 35.84-15.36 35.84-35.84v-40.96h61.44c20.48 0 30.72 15.36 30.72 35.84v112.64c0 20.48-15.36 35.84-30.72 35.84zM399.36 300.8h-286.72v97.28c0 10.24 5.12 15.36 15.36 15.36h250.88c10.24 0 15.36-5.12 15.36-15.36v-97.28z" />
<glyph unicode="&#x48;" d="M317.44 480c35.84 0 51.2-25.6 51.2-51.2 0-35.84-30.72-66.56-66.56-66.56-30.72 0-51.2 20.48-51.2 51.2s20.48 66.56 66.56 66.56v0zM215.040-32c-25.6 0-46.080 15.36-25.6 92.16l30.72 128c5.12 20.48 5.12 30.72 0 30.72-10.24 0-46.080-15.36-66.56-30.72l-15.36 25.6c66.56 56.32 143.36 87.040 174.080 87.040 25.6 0 30.72-30.72 20.48-81.92l-35.84-138.24c-10.24-25.6-5.12-30.72 0-30.72 10.24 0 35.84 10.24 61.44 30.72l15.36-20.48c-61.44-66.56-133.12-92.16-158.72-92.16v0z" />
<glyph unicode="&#x49;" d="M476.16 444.16v0c-51.2 51.2-128 51.2-174.080 0l-107.52-107.52c-46.080-46.080-46.080-122.88 0-168.96v0c5.12-10.24 10.24-10.24 15.36-15.36l40.96 40.96c-5.12 0-10.24 5.12-15.36 10.24v0c-25.6 25.6-25.6 66.56 0 92.16l107.52 107.52c25.6 25.6 66.56 25.6 92.16 0v0c25.6-25.6 25.6-66.56 0-92.16l-51.2-51.2c10.24-20.48 10.24-46.080 10.24-66.56l76.8 76.8c51.2 46.080 51.2 128 5.12 174.080v0zM317.44 285.44c-5.12 5.12-10.24 5.12-15.36 10.24l-40.96-40.96c5.12-5.12 10.24-5.12 15.36-10.24v0c25.6-25.6 25.6-66.56 0-92.16l-107.52-107.52c-25.6-25.6-66.56-25.6-92.16 0v0c-25.6 25.6-25.6 66.56 0 92.16l51.2 51.2c-10.24 20.48-15.36 40.96-15.36 66.56l-76.8-76.8c-46.080-46.080-46.080-122.88 0-168.96v0c46.080-46.080 122.88-46.080 168.96 0l107.52 107.52c51.2 40.96 51.2 117.76 5.12 168.96 0 0 0 0 0 0z" />
<glyph unicode="&#x4a;" d="M194.56 449.28h317.44v-61.44h-317.44v61.44zM194.56 254.72h317.44v-61.44h-317.44v61.44zM194.56 65.28h317.44v-61.44h-317.44v61.44zM0 418.56c0 30.72 30.72 61.44 61.44 61.44s61.44-30.72 61.44-61.44-25.6-66.56-61.44-66.56-61.44 30.72-61.44 66.56zM0 224c0 35.84 30.72 61.44 61.44 61.44s66.56-25.6 66.56-61.44-30.72-61.44-66.56-61.44-61.44 25.6-61.44 61.44zM0 29.44c0 35.84 30.72 61.44 61.44 61.44s61.44-30.72 61.44-61.44-25.6-61.44-61.44-61.44-61.44 30.72-61.44 61.44z" />
<glyph unicode="&#x4b;" d="M430.080 352l-235.52 122.88c-35.84 15.36-97.28-15.36-117.76-46.080-5.12-10.24-5.12-20.48-5.12-25.6l5.12-276.48c0-5.12 5.12-15.36 15.36-15.36 10.24-10.24 209.92-138.24 215.040-138.24 0-5.12 5.12-5.12 10.24-5.12s5.12 0 10.24 0c5.12 5.12 10.24 10.24 10.24 15.36v291.84c0 5.12-5.12 10.24-10.24 15.36l-220.16 122.88c0 5.12 10.24 15.36 30.72 25.6s30.72 5.12 35.84 5.12c0 0 209.92-112.64 215.040-112.64 5.12-5.12 5.12-5.12 5.12-10.24s0-276.48 0-276.48c0-20.48 15.36-25.6 25.6-25.6s20.48 10.24 20.48 20.48v296.96c0 5.12-5.12 10.24-10.24 15.36v0z" />
<glyph unicode="&#x4c;" d="M256 480c-87.040 0-158.72-71.68-158.72-158.72 0-153.6 158.72-353.28 158.72-353.28s158.72 199.68 158.72 353.28c0 87.040-71.68 158.72-158.72 158.72zM256 229.12c-46.080 0-87.040 40.96-87.040 87.040s40.96 87.040 87.040 87.040 87.040-40.96 87.040-87.040-40.96-87.040-87.040-87.040z" />
<glyph unicode="&#x4d;" d="M430.080 300.8h-51.2v40.96c0 87.040-40.96 138.24-122.88 138.24s-122.88-51.2-122.88-138.24v-40.96h-56.32c-15.36 0-30.72-20.48-30.72-35.84v-235.52c0-15.36 15.36-35.84 30.72-40.96l35.84-10.24c15.36-5.12 40.96-10.24 56.32-10.24h174.080c15.36 0 40.96 5.12 61.44 10.24l35.84 10.24c15.36 5.12 30.72 20.48 30.72 40.96v235.52c-5.12 15.36-25.6 35.84-40.96 35.84zM194.56 352c0 40.96 25.6 66.56 61.44 66.56s61.44-20.48 61.44-66.56v-56.32h-122.88c0 5.12 0 56.32 0 56.32z" />
<glyph unicode="&#x4e;" d="M394.24 346.88c-25.6 20.48-66.56 0-66.56-35.84v0c0-10.24 5.12-25.6 15.36-30.72 30.72-25.6 51.2-61.44 51.2-97.28 0-71.68-61.44-128-133.12-128-76.8 0-133.12 56.32-133.12 128 0 40.96 20.48 76.8 56.32 102.4 10.24 5.12 15.36 20.48 15.36 30.72v0c0 35.84-40.96 56.32-66.56 35.84-56.32-40.96-87.040-102.4-87.040-168.96 0-117.76 102.4-215.040 225.28-215.040s225.28 97.28 225.28 215.040c-15.36 66.56-51.2 122.88-102.4 163.84zM256 188.16c-20.48 0-40.96 15.36-40.96 40.96v209.92c0 25.6 20.48 40.96 40.96 40.96s40.96-15.36 40.96-40.96v-209.92c0-20.48-20.48-40.96-40.96-40.96z" />
<glyph unicode="&#x4f;" d="M15.36 357.12c15.36-5.12 204.8-112.64 215.040-112.64 5.12-5.12 15.36-5.12 25.6-5.12s20.48 0 25.6 5.12c5.12 5.12 199.68 107.52 215.040 112.64s25.6 30.72 0 30.72h-481.28c-25.6 0-10.24-20.48 0-30.72v0zM501.76 300.8c-15.36-10.24-209.92-107.52-220.16-112.64s-15.36-5.12-25.6-5.12c-10.24 0-15.36 0-25.6 5.12s-204.8 107.52-220.16 112.64c-10.24 5.12-10.24 0-10.24-5.12s0-209.92 0-209.92c0-10.24 15.36-25.6 30.72-25.6h455.68c10.24 0 30.72 15.36 30.72 25.6 0 0 0 204.8 0 209.92-5.12 5.12-5.12 10.24-15.36 5.12z" />
<glyph unicode="&#x50;" d="M363.52 234.24c20.48 46.080 40.96 92.16 66.56 138.24 0 0 0 5.12 5.12 10.24 5.12 10.24 5.12 20.48-10.24 30.72-15.36 0-25.6-5.12-30.72-15.36-20.48-35.84-35.84-71.68-51.2-107.52-10.24-20.48-25.6-56.32-35.84-51.2-10.24 10.24 87.040 194.56 87.040 194.56 5.12 10.24 15.36 25.6 0 35.84-20.48 10.24-30.72 0-40.96-15.36-25.6-51.2-56.32-107.52-81.92-163.84 0-5.12-15.36-25.6-20.48-20.48s25.6 81.92 25.6 81.92c10.24 30.72 25.6 61.44 35.84 92.16 5.12 10.24 10.24 25.6-5.12 35.84-15.36 5.12-30.72-5.12-35.84-20.48-15.36-35.84-30.72-71.68-46.080-107.52-15.36-40.96-35.84-81.92-56.32-122.88-5.12-10.24-20.48-30.72-35.84-30.72-20.48 0-15.36 10.24-25.6 25.6-10.24 25.6-15.36 51.2-25.6 76.8-5.12 10.24-25.6 40.96-51.2 25.6-10.24-5.12-5.12-20.48 0-30.72 5.12-25.6 20.48-51.2 25.6-76.8 10.24-30.72 10.24-71.68 15.36-102.4 5.12-15.36 5.12-30.72 15.36-46.080 15.36-35.84 35.84-66.56 76.8-76.8 20.48-5.12 40.96-15.36 61.44-20.48 56.32-20.48 102.4 30.72 128 97.28 20.48 40.96 40.96 81.92 61.44 122.88 15.36 25.6 25.6 51.2 40.96 76.8 0 0 5.12 5.12 5.12 5.12 5.12 10.24 10.24 25.6-5.12 30.72s-20.48 0-25.6-10.24c-25.6-30.72-46.080-61.44-66.56-92.16 0-5.12-10.24-20.48-20.48-15.36-5.12 5.12 20.48 46.080 20.48 46.080z" />
<glyph unicode="&#x51;" d="M512 264.96c0 102.4-30.72 184.32-66.56 184.32 0 0 0 0 0 0h-40.96c0 0-97.28-71.68-235.52-102.4-5.12-20.48-5.12-51.2-5.12-81.92s5.12-56.32 5.12-81.92c138.24-30.72 235.52-102.4 235.52-102.4h40.96c0 0 0 0 0 0 35.84 5.12 66.56 81.92 66.56 184.32zM430.080 111.36c-5.12 0-10.24 5.12-10.24 10.24-5.12 5.12-10.24 15.36-15.36 30.72-15.36 25.6-20.48 71.68-20.48 112.64s5.12 87.040 20.48 117.76c5.12 10.24 10.24 20.48 15.36 30.72 5.12 5.12 5.12 10.24 10.24 10.24s10.24-5.12 10.24-10.24c10.24-10.24 15.36-20.48 20.48-30.72 10.24-30.72 20.48-71.68 20.48-117.76s-5.12-87.040-20.48-112.64c-5.12-15.36-10.24-25.6-15.36-35.84-5.12 0-10.24-5.12-15.36-5.12zM128 264.96c0 25.6 0 51.2 5.12 76.8-25.6-5.12-46.080-5.12-71.68-5.12-35.84 0-35.84 0-35.84 0l-25.6-51.2v-46.080l25.6-46.080c0 0 0 0 35.84 0 25.6 0 46.080 0 71.68-5.12-5.12 25.6-5.12 51.2-5.12 76.8v0zM184.32 157.44l-66.56 15.36 40.96-158.72c0-10.24 10.24-10.24 20.48-10.24l61.44 25.6c10.24 5.12 10.24 10.24 5.12 20.48 0-5.12-61.44 107.52-61.44 107.52zM430.080 203.52c0 0 0 5.12 0 0-5.12 10.24-5.12 10.24-10.24 15.36-5.12 15.36-5.12 30.72-5.12 46.080s0 30.72 5.12 46.080c0 5.12 5.12 10.24 5.12 10.24s5.12 5.12 5.12 5.12 5.12 0 5.12-5.12c0-5.12 5.12-5.12 5.12-10.24 5.12-10.24 5.12-25.6 5.12-46.080s0-30.72-5.12-46.080c0-5.12 0-5.12-10.24-15.36 5.12 5.12 5.12 0 0 0z" />
<glyph unicode="&#x52;" d="M476.16 295.68h-128c-10.24 0-20.48 10.24-20.48 25.6v117.76c0 20.48-20.48 40.96-40.96 40.96h-61.44c-20.48 0-40.96-20.48-40.96-40.96v-122.88c0-15.36-10.24-25.6-20.48-25.6h-128c-20.48 5.12-35.84-15.36-35.84-35.84v-56.32c0-25.6 15.36-46.080 35.84-46.080h128c10.24 0 20.48-10.24 20.48-25.6v-122.88c0-15.36 20.48-35.84 40.96-35.84h66.56c15.36 0 35.84 20.48 35.84 40.96v122.88c0 15.36 10.24 25.6 20.48 25.6h128c20.48-5.12 35.84 15.36 35.84 35.84v61.44c0 20.48-15.36 40.96-35.84 40.96z" />
<glyph unicode="&#x53;" d="M276.48 428.8c-128 0-230.4-81.92-230.4-184.32 0-40.96 15.36-81.92 46.080-112.64 5.12-5.12 5.12-15.36 0-20.48-20.48-35.84-51.2-71.68-92.16-92.16 0 0 87.040 15.36 158.72 51.2 10.24 0 20.48 0 30.72 0 25.6-10.24 56.32-15.36 92.16-15.36 128 0 230.4 81.92 230.4 189.44 0 102.4-102.4 184.32-235.52 184.32z" />
<glyph unicode="&#x54;" d="M486.4 264.96h-460.8c-15.36 0-25.6-10.24-25.6-25.6v-71.68c0-15.36 10.24-25.6 25.6-25.6h455.68c15.36 0 25.6 10.24 25.6 25.6v71.68c5.12 15.36-5.12 25.6-20.48 25.6z" />
<glyph unicode="&#x55;" d="M256 382.72c-112.64 0-209.92-61.44-256-158.72 46.080-97.28 143.36-158.72 256-158.72s209.92 61.44 256 158.72c-46.080 97.28-143.36 158.72-256 158.72zM384 300.8c30.72-20.48 56.32-46.080 71.68-76.8-15.36-30.72-40.96-56.32-71.68-76.8-40.96-20.48-81.92-35.84-128-35.84s-87.040 15.36-128 35.84c-30.72 20.48-51.2 46.080-71.68 76.8 20.48 30.72 46.080 56.32 76.8 76.8 0 0 5.12 0 5.12 5.12-5.12-15.36-10.24-30.72-10.24-46.080 0-71.68 56.32-128 128-128s128 56.32 128 128c0 15.36-5.12 30.72-10.24 46.080 5.12-5.12 5.12-5.12 10.24-5.12v0zM256 275.2c0-25.6-20.48-46.080-46.080-46.080s-51.2 20.48-51.2 46.080 20.48 46.080 46.080 46.080 51.2-20.48 51.2-46.080z" />
<glyph unicode="&#x56;" d="M471.040 264.96h-30.72c-5.12 20.48-15.36 40.96-25.6 56.32l25.6 25.6c15.36 15.36 15.36 40.96 0 56.32l-5.12 5.12c-15.36 15.36-40.96 15.36-56.32 0l-25.6-20.48c-15.36 10.24-35.84 15.36-51.2 20.48v30.72c0 25.6-20.48 40.96-40.96 40.96h-10.24c-20.48 0-35.84-15.36-35.84-40.96v-30.72c-20.48-5.12-40.96-10.24-56.32-20.48l-25.6 20.48c-15.36 15.36-40.96 15.36-56.32 0l-5.12-5.12c-15.36-15.36-15.36-40.96 0-56.32l25.6-25.6c-10.24-15.36-20.48-35.84-25.6-56.32h-35.84c-20.48 0-35.84-15.36-35.84-35.84v-10.24c0-20.48 15.36-40.96 35.84-40.96h35.84c5.12-15.36 10.24-35.84 20.48-51.2l-20.48-25.6c-15.36-15.36-15.36-40.96 0-56.32l5.12-5.12c15.36-15.36 40.96-15.36 56.32 0l25.6 25.6c15.36-10.24 35.84-15.36 56.32-20.48v-35.84c0-20.48 15.36-40.96 35.84-40.96h10.24c20.48 0 40.96 20.48 40.96 40.96v35.84c15.36 5.12 35.84 10.24 51.2 20.48l25.6-25.6c15.36-15.36 40.96-15.36 56.32 0l5.12 5.12c15.36 15.36 15.36 40.96 0 56.32l-25.6 25.6c10.24 15.36 15.36 35.84 20.48 51.2h30.72c20.48 0 40.96 20.48 40.96 40.96v10.24c5.12 20.48-15.36 35.84-35.84 35.84zM256 126.72c-56.32 0-102.4 46.080-102.4 97.28 0 56.32 46.080 102.4 102.4 102.4s102.4-46.080 102.4-102.4c0-51.2-46.080-97.28-102.4-97.28z" />
<glyph unicode="&#x57;" d="M496.64 428.8c-10.24-5.12-481.28-168.96-491.52-174.080-5.12 0-10.24-10.24 0-10.24 10.24-5.12 107.52-40.96 107.52-40.96v0l61.44-30.72c0 0 302.080 220.16 307.2 225.28s10.24-5.12 5.12-5.12c-5.12 0-220.16-235.52-220.16-235.52v0l-10.24-15.36 15.36-10.24c0 0 128-71.68 138.24-76.8s20.48 0 20.48 10.24c5.12 15.36 81.92 343.040 81.92 353.28s-5.12 15.36-15.36 10.24v0zM174.080 24.32c0-5.12 5.12-10.24 10.24-5.12s76.8 71.68 76.8 71.68l-87.040 46.080v-112.64z" />
<glyph unicode="&#x58;" d="M256 469.76c-133.12 0-245.76-112.64-245.76-245.76s112.64-245.76 245.76-245.76 245.76 112.64 245.76 245.76-112.64 245.76-245.76 245.76zM465.92 224c0-46.080-15.36-92.16-40.96-128-10.24 5.12-20.48 20.48-10.24 40.96 10.24 15.36 10.24 56.32 10.24 71.68s-10.24 51.2-30.72 51.2c-20.48 0-35.84 5.12-51.2 30.72-25.6 51.2 51.2 61.44 25.6 92.16-10.24 10.24-51.2-30.72-56.32 25.6 0 5.12 5.12 10.24 10.24 15.36 81.92-30.72 143.36-107.52 143.36-199.68v0zM225.28 433.92c-5.12-10.24-15.36-15.36-25.6-25.6-15.36-15.36-25.6-10.24-30.72-25.6s-40.96-35.84-40.96-51.2c0-10.24 15.36-25.6 25.6-20.48s25.6 0 40.96 0c10.24-5.12 102.4-10.24 71.68-81.92-15.36-25.6-51.2-20.48-61.44-61.44 0-5.12-5.12-30.72-5.12-40.96-5.12-10.24 5.12-56.32-5.12-56.32s-46.080 40.96-46.080 51.2-10.24 30.72-10.24 56.32-35.84 20.48-35.84 51.2c0 25.6 20.48 40.96 15.36 56.32-5.12 10.24-40.96 10.24-56.32 15.36 25.6 66.56 87.040 117.76 163.84 133.12zM189.44 24.32c15.36 5.12 15.36 15.36 25.6 15.36 15.36 0 25.6 5.12 40.96 10.24s35.84 15.36 56.32 15.36c15.36 0 51.2 0 61.44-15.36-35.84-20.48-76.8-35.84-117.76-35.84-20.48 0-46.080 5.12-66.56 10.24v0z" />
<glyph unicode="&#x59;" d="M240.64 357.12l-235.52-230.4c-15.36-15.36 0-40.96 20.48-40.96h465.92c20.48 0 30.72 25.6 15.36 40.96l-230.4 230.4c-10.24 10.24-30.72 10.24-35.84 0z" />
<glyph unicode="&#x5a;" d="M389.12 239.36l-230.4 235.52c-15.36 15.36-40.96 0-40.96-20.48v-465.92c0-20.48 25.6-30.72 40.96-15.36l230.4 230.4c10.24 10.24 10.24 30.72 0 35.84z" />
<glyph unicode="&#x5b;" d="M435.2 423.68c-56.32 35.84-117.76 56.32-179.2 56.32s-122.88-20.48-179.2-56.32c-5.12-5.12-10.24-10.24-10.24-15.36 10.24-158.72 10.24-163.84 25.6-394.24 0-5.12 0-5.12 5.12-10.24 30.72-25.6 97.28-35.84 158.72-35.84s128 10.24 158.72 35.84c5.12 0 5.12 5.12 5.12 10.24 15.36 225.28 15.36 230.4 25.6 394.24 0 5.12-5.12 10.24-10.24 15.36zM404.48 387.84c-46.080-56.32-245.76-51.2-296.96 0-5.12 5.12 0 10.24 5.12 15.36 46.080 30.72 97.28 46.080 143.36 46.080s97.28-15.36 143.36-46.080c5.12-5.12 10.24-10.24 5.12-15.36z" />
<glyph unicode="&#x5c;" d="M430.080 480h-358.4c-20.48 0-40.96-20.48-40.96-46.080v-414.72c0-30.72 20.48-51.2 46.080-51.2h358.4c25.6 0 46.080 20.48 46.080 46.080v419.84c-5.12 25.6-25.6 46.080-51.2 46.080zM343.040 55.040h-184.32v20.48l76.8 97.28-76.8 92.16v20.48h179.2l5.12-61.44h-25.6v10.24c0 20.48-10.24 20.48-20.48 20.48h-66.56l61.44-71.68-71.68-81.92h76.8c5.12 0 10.24 0 15.36 0s5.12 0 10.24 5.12c0 0 5.12 5.12 5.12 15.36v10.24l25.6-5.12-10.24-71.68zM430.080 362.24h-348.16v30.72h353.28v-30.72z" />
<glyph unicode="&#x5d;" d="M445.44 285.44c-30.72 46.080-56.32 71.68-117.76 92.16v87.040c0 10.24-15.36 20.48-25.6 10.24l-138.24-122.88c-5.12-5.12-5.12-15.36 0-20.48l138.24-133.12c10.24-10.24 25.6 0 25.6 10.24v117.76c51.2-20.48 87.040-71.68 87.040-138.24 0-81.92-76.8-143.36-163.84-143.36-56.32-5.12-107.52 25.6-138.24 66.56-15.36 40.96-20.48 81.92 0 122.88 5.12 5.12 0 15.36 0 20.48-5.12 5.12-10.24 10.24-20.48 15.36-5.12 0-15.36 0-20.48-5.12-5.12 0-10.24-5.12-10.24-10.24-30.72-61.44-25.6-128 10.24-184.32 61.44-97.28 194.56-128 291.84-71.68 0 0 5.12 0 5.12 0v0c51.2 30.72 81.92 76.8 97.28 128 15.36 56.32 10.24 112.64-20.48 158.72z" />
<glyph unicode="&#x5e;" d="M419.84-11.52c20.48-20.48 46.080-20.48 66.56 0v0c25.6 10.24 25.6 40.96 5.12 61.44l-133.12 133.12c20.48 30.72 30.72 66.56 30.72 107.52 0 102.4-87.040 189.44-189.44 189.44-107.52 0-194.56-87.040-194.56-189.44s87.040-189.44 189.44-189.44c35.84 0 66.56 10.24 92.16 25.6l133.12-138.24zM199.68 142.080c-76.8 0-143.36 66.56-143.36 143.36s66.56 143.36 143.36 143.36 143.36-66.56 143.36-143.36-66.56-143.36-143.36-143.36z" />
<glyph unicode="&#x5f;" d="M455.68-32h-399.36v46.080l168.96 209.92-168.96 209.92v46.080h389.12l10.24-143.36h-61.44v20.48c-5.12 46.080-25.6 51.2-40.96 51.2h-143.36l128-158.72-148.48-184.32h163.84c5.12 0 15.36 0 30.72 5.12 10.24 0 15.36 5.12 15.36 10.24 5.12 5.12 10.24 15.36 15.36 30.72l5.12 25.6 61.44-10.24-25.6-158.72z" />
<glyph unicode="&#x60;" d="M261.12 474.88l61.44-174.080c5.12-10.24 10.24-15.36 20.48-15.36h158.72c10.24 5.12 10.24-5.12 5.12-10.24l-128-97.28c-10.24-5.12-15.36-15.36-10.24-25.6l46.080-179.2c5.12-5.12-5.12-5.12-10.24-5.12l-138.24 102.4c-10.24 5.12-20.48 5.12-30.72 0l-138.24-102.4c5.12 0-5.12 0 0 5.12l46.080 179.2c0 10.24 0 20.48-10.24 25.6l-128 97.28c-5.12 5.12-5.12 15.36 0 15.36h158.72c10.24 0 20.48 5.12 20.48 15.36l61.44 174.080c5.12 0 15.36 0 15.36-5.12z" />
<glyph unicode="&#x61;" d="M363.52 224l138.24 138.24c15.36 15.36 15.36 35.84 0 46.080l-61.44 61.44c-10.24 15.36-30.72 15.36-46.080 0l-138.24-138.24-138.24 138.24c-15.36 15.36-35.84 15.36-46.080 0l-61.44-61.44c-15.36-15.36-15.36-35.84 0-46.080l138.24-138.24-138.24-138.24c-15.36-15.36-15.36-35.84 0-46.080l61.44-61.44c15.36-15.36 35.84-15.36 46.080 0l138.24 138.24 138.24-138.24c15.36-15.36 35.84-15.36 46.080 0l61.44 61.44c15.36 15.36 15.36 35.84 0 46.080l-138.24 138.24z" />
<glyph unicode="&#x62;" d="M302.080 290.56h-286.72c-10.24 0-15.36-5.12-15.36-10.24v-235.52c0-5.12 5.12-15.36 15.36-15.36h281.6c10.24 0 15.36 5.12 15.36 15.36v235.52c5.12 5.12-5.12 10.24-10.24 10.24zM496.64 321.28l-266.24 81.92c-10.24 5.12-15.36 0-20.48-5.12l-30.72-92.16h148.48c10.24 0 25.6-10.24 25.6-20.48v-194.56l71.68-25.6c10.24-5.12 15.36 0 15.36 10.24l71.68 225.28c0 10.24-5.12 15.36-15.36 20.48z" />
<glyph unicode="&#x63;" d="M445.44 300.8c0 66.56-56.32 117.76-117.76 117.76-40.96 0-71.68-20.48-92.16-46.080-10.24 15.36-30.72 25.6-51.2 25.6-35.84 0-66.56-30.72-66.56-66.56 0-5.12 0-5.12 0-10.24-5.12 0-10.24 0-15.36 0-61.44 0-102.4-40.96-102.4-97.28s40.96-97.28 97.28-97.28h51.2l107.52-107.52 107.52 107.52h61.44c46.080 0 87.040 40.96 87.040 87.040 0 40.96-30.72 76.8-66.56 87.040v0zM256 65.28l-97.28 97.28h61.44v92.16h61.44v-97.28h61.44l-87.040-92.16z" />
<glyph unicode="&#x64;" d="M409.6 162.56h-102.4v312.32c-10.24 5.12-112.64 5.12-117.76 0v-312.32h-102.4c-15.36 0-20.48-15.36-10.24-25.6l163.84-163.84c5.12-5.12 15.36-5.12 25.6 0l163.84 163.84c0 10.24-5.12 25.6-20.48 25.6z" />
<glyph unicode="&#x65;" d="M296.96 183.040c-51.2-51.2-107.52-97.28-133.12-76.8-35.84 35.84-56.32 66.56-128 5.12s-15.36-97.28 15.36-128c35.84-35.84 174.080 0 312.32 133.12s174.080 276.48 133.12 312.32c-30.72 30.72-71.68 87.040-128 15.36s-30.72-92.16 5.12-128c20.48-20.48-25.6-81.92-76.8-133.12v0z" />
<glyph unicode="&#x66;" d="M419.84 280.32h-51.2v66.56c0 87.040-35.84 133.12-112.64 133.12s-112.64-46.080-112.64-133.12v-10.24h56.32v25.6c0 40.96 20.48 61.44 56.32 61.44s56.32-20.48 56.32-61.44v-81.92h-225.28c-15.36 0-30.72-20.48-30.72-35.84v-220.16c0-15.36 10.24-30.72 25.6-35.84l35.84-10.24c15.36-5.12 40.96-10.24 56.32-10.24h163.84c15.36 0 40.96 5.12 56.32 10.24l35.84 10.24c15.36 5.12 25.6 20.48 25.6 35.84v220.16c0 20.48-20.48 35.84-35.84 35.84z" />
<glyph unicode="&#x67;" d="M389.12 285.44c-5.12 0-15.36 0-20.48 0-15.36 51.2-66.56 92.16-128 92.16-76.8 0-138.24-61.44-138.24-133.12 0-5.12 0-15.36 0-20.48 0 0-5.12 0-10.24 0-51.2 0-92.16-40.96-92.16-92.16s40.96-92.16 92.16-92.16h128v102.4h-51.2l87.040 117.76 87.040-117.76h-51.2v-97.28h97.28c66.56 0 122.88 51.2 122.88 117.76s-51.2 122.88-122.88 122.88v0z" />
<glyph unicode="&#x68;" d="M245.76 126.72c97.28 0 179.2 76.8 179.2 179.2 0 97.28-81.92 174.080-179.2 174.080s-174.080-76.8-174.080-179.2c0-97.28 76.8-174.080 174.080-174.080zM368.64 106.24c-30.72 0-76.8-30.72-117.76-30.72-35.84 0-107.52 25.6-107.52 25.6-92.16 10.24-133.12-133.12-133.12-133.12h491.52c-25.6 102.4-102.4 138.24-133.12 138.24z" />
<glyph unicode="&#x69;" d="M235.52 106.24c-20.48 0-51.2-20.48-76.8-20.48s-71.68 20.48-71.68 20.48c-61.44 0-87.040-97.28-87.040-97.28h327.68c-20.48 71.68-71.68 92.16-92.16 97.28zM158.72 116.48c66.56 0 117.76 51.2 117.76 117.76s-51.2 117.76-117.76 117.76-117.76-51.2-117.76-117.76c0-66.56 51.2-117.76 117.76-117.76zM343.040 147.2c66.56 0 117.76 51.2 117.76 117.76s-51.2 117.76-117.76 117.76c-66.56 0-117.76-51.2-117.76-117.76s51.2-117.76 117.76-117.76zM424.96 136.96c-20.48 0-51.2-20.48-76.8-20.48s-71.68 20.48-71.68 20.48c-61.44 0-87.040-92.16-87.040-92.16h322.56c-15.36 66.56-66.56 87.040-87.040 92.16z" />
<glyph unicode="&#x6a;" d="M501.76 382.72l-15.36 15.36c-15.36 15.36-40.96 15.36-56.32 0l-220.16-209.92c-10.24-10.24-20.48-10.24-30.72 0l-102.4 97.28c-15.36 15.36-35.84 10.24-51.2 0l-15.36-15.36c-15.36-15.36-15.36-35.84-5.12-51.2l158.72-174.080c15.36-15.36 35.84-10.24 51.2 0l281.6 281.6c20.48 20.48 20.48 40.96 5.12 56.32z" />
<glyph unicode="&#x6b;" d="M266.24 305.92h-40.96c-5.12 0-5.12 5.12-5.12 5.12v40.96c0 5.12-5.12 10.24-10.24 10.24h-20.48c-5.12 0-10.24-5.12-10.24-10.24v-35.84c0-5.12-5.12-5.12-5.12-5.12h-46.080c-5.12 0-10.24-5.12-10.24-10.24v-25.6c0-5.12 5.12-10.24 10.24-10.24h40.96c5.12 0 5.12-5.12 5.12-5.12v-35.84c0-5.12 5.12-10.24 10.24-10.24h20.48c5.12 0 10.24 5.12 10.24 10.24v30.72c0 5.12 5.12 5.12 5.12 5.12h40.96c5.12 0 10.24 5.12 10.24 10.24v20.48c5.12 10.24 0 15.36-5.12 15.36zM491.52 49.92l-128 128c0 0-5.12 5.12-5.12 5.12 20.48 30.72 30.72 66.56 30.72 107.52 0 102.4-87.040 189.44-189.44 189.44s-194.56-87.040-194.56-189.44 87.040-189.44 189.44-189.44c35.84 0 66.56 10.24 92.16 25.6 0-5.12 5.12-5.12 5.12-10.24l128-128c20.48-20.48 46.080-20.48 66.56 0v0c25.6 10.24 25.6 40.96 5.12 61.44zM199.68 142.080c-76.8 0-143.36 66.56-143.36 143.36s66.56 143.36 143.36 143.36 143.36-66.56 143.36-143.36-66.56-143.36-143.36-143.36z" />
</font>
</defs>
</svg>
